<svg width="496" height="820" viewBox="0 0 496 820" fill="none" xmlns="http://www.w3.org/2000/svg">
<g clip-path="url(#clip0_114_1969)">
<mask id="mask0_114_1969" style="mask-type:luminance" maskUnits="userSpaceOnUse" x="-4" y="0" width="500" height="900">
<path d="M496 0H-4V900H496V0Z" fill="white"/>
</mask>
<g mask="url(#mask0_114_1969)">
<mask id="mask1_114_1969" style="mask-type:alpha" maskUnits="userSpaceOnUse" x="-671" y="119" width="1152" height="755">
<path d="M189.337 870.65L470.957 827.674C478.238 826.563 482.68 819.076 480.16 812.163L284.073 274.215C245.689 168.914 138.195 105.393 27.1625 122.352L-469.832 198.213C-617.43 220.786 -707.508 372.518 -656.482 512.545C-617.873 618.364 -509.895 682.289 -398.328 665.284L-112.934 621.701C-107.436 620.862 -102.11 624.013 -100.206 629.233L-67.5809 718.699C-29.1969 824 78.3049 887.61 189.337 870.65Z" fill="url(#paint0_linear_114_1969)"/>
</mask>
<g mask="url(#mask1_114_1969)">
<mask id="mask2_114_1969" style="mask-type:luminance" maskUnits="userSpaceOnUse" x="-4" y="0" width="1428" height="900">
<path d="M-4 0H1424V900H-4V0Z" fill="white"/>
</mask>
<g mask="url(#mask2_114_1969)">
<path d="M187.915 868.789L468.133 826.026C475.377 824.921 479.797 817.471 477.29 810.593L282.178 275.321C243.985 170.544 137.027 107.339 26.5471 124.214L-467.973 199.697C-614.837 222.158 -704.466 373.135 -653.694 512.465C-615.277 617.758 -507.837 681.365 -396.826 664.444L-112.852 621.078C-107.382 620.243 -102.082 623.379 -100.188 628.573L-67.7247 717.594C-29.5318 822.371 77.4349 885.664 187.915 868.789Z" fill="url(#paint1_linear_114_1969)"/>
<path d="M1422.5 12V888C1422.5 894.623 1417.12 900 1410.5 900H6.49996C-0.122819 900 -5.5 894.623 -5.5 888V12C-5.5 5.3772 -0.122819 0 6.49996 0H1410.5C1417.12 0 1422.5 5.3772 1422.5 12Z" fill="url(#paint2_linear_114_1969)"/>
</g>
</g>
</g>
</g>
<defs>
<linearGradient id="paint0_linear_114_1969" x1="1423.56" y1="911.565" x2="-11.0769" y2="7.06489" gradientUnits="userSpaceOnUse">
<stop stop-color="#E5F0FF"/>
<stop offset="0.5" stop-color="#E9EBFF"/>
<stop offset="1" stop-color="#EBE5FF"/>
</linearGradient>
<linearGradient id="paint1_linear_114_1969" x1="1415.99" y1="909.5" x2="-11.5043" y2="9.50383" gradientUnits="userSpaceOnUse">
<stop stop-color="#E5F0FF"/>
<stop offset="0.5" stop-color="#E9EBFF"/>
<stop offset="1" stop-color="#EBE5FF"/>
</linearGradient>
<linearGradient id="paint2_linear_114_1969" x1="708.498" y1="0" x2="708.498" y2="900" gradientUnits="userSpaceOnUse">
<stop offset="0.35" stop-color="white" stop-opacity="0"/>
<stop offset="0.68" stop-color="white" stop-opacity="0.5"/>
<stop offset="1" stop-color="white"/>
</linearGradient>
<clipPath id="clip0_114_1969">
<rect width="500" height="900" fill="white" transform="translate(-4)"/>
</clipPath>
</defs>
</svg>
